<svg width="223" height="108" viewBox="0 0 223 108" fill="none" xmlns="http://www.w3.org/2000/svg">
<path d="M0 107.269C2.20949 107.46 4.40374 107.705 6.58203 108H0V107.269ZM0 104.259C7.65576 104.908 15.1359 106.171 22.3916 108H15.6133C10.5049 106.968 5.29502 106.217 0 105.764V104.259ZM0 101.248C11.4741 102.2 22.5637 104.504 33.1104 108H28.0879C19.0665 105.345 9.67149 103.564 0 102.753V101.248ZM0 98.2373C14.6832 99.4298 28.7527 102.791 41.8887 108H37.6768C25.7709 103.65 13.1338 100.82 0 99.7422V98.2373ZM0 95.2275C17.5522 96.624 34.2486 101.056 49.5645 108H45.833C31.5667 101.926 16.1502 98.0305 0 96.7324V95.2275ZM0 92.2178C20.1987 93.7927 39.2897 99.3102 56.5068 108H53.1133C36.8171 100.184 18.8988 95.2101 0 93.7217V92.2178ZM0 89.207C22.6908 90.9416 44.0156 97.5563 62.9307 108H59.7793C41.69 98.4329 21.4627 92.3688 0 90.7119V89.207ZM0 86.1992C25.0663 88.0786 48.5033 95.7982 68.957 108H65.9922C46.2892 96.6765 23.8927 89.5109 0 87.7021V86.1992ZM0 83.1914C27.3516 85.2035 52.8062 94.0377 74.6699 108H71.8467C50.6737 94.9187 26.2184 86.6424 0 84.6953V83.1914ZM0 80.1836C29.5634 82.3183 56.9578 92.277 80.124 108H77.4277C54.9002 93.1569 28.4662 83.7621 0 81.6875V80.1836ZM0 77.1758C31.716 79.4243 60.9872 90.5163 85.3652 108H82.7676C58.9852 91.397 30.646 80.8732 0 78.6807V77.1758ZM0 74.1689C33.8195 76.5239 64.9162 88.7557 90.4277 108H87.917C62.9631 89.636 32.7733 77.9755 0 75.6729V74.1689ZM0 71.1621C35.8816 73.6169 68.7602 86.9959 95.3369 108H92.9004C66.8482 87.8756 34.8553 75.0717 0 72.666V71.1621ZM0 68.1543C37.9089 70.7032 72.5335 85.2363 100.115 108H97.7422C70.6558 86.1158 36.8995 72.1607 0 69.6582V68.1543ZM0 65.1465C39.9032 67.7841 76.2358 83.4804 104.768 108H102.454C74.3911 84.3585 38.9094 69.2442 0 66.6504V65.1465ZM0 62.1406C41.8721 64.8623 79.8875 81.7247 109.321 108H107.056C78.0672 82.6027 40.8905 66.3237 0 63.6436V62.1406ZM0 59.1328C43.8172 61.9343 83.4896 79.9708 113.781 108H111.565C81.6972 80.8466 42.8483 63.3989 0 60.6367V59.1328ZM0 56.126C45.7418 59.0035 87.0496 78.2184 118.159 108H115.979C85.2732 79.0948 44.7816 60.4688 0 57.6289V56.126ZM0 53.1201C47.6472 56.07 90.5694 76.4683 122.46 108H120.32C88.8157 77.3426 46.6972 57.5372 0 54.623V53.1201ZM0 50.1152C49.5368 53.1343 94.0573 74.7192 126.695 108H124.586C92.3176 75.5935 48.594 54.6021 0 51.6172V50.1152ZM0 47.1094C51.4115 50.1946 97.5148 72.9718 130.869 108H128.786C95.7864 73.8463 50.475 51.6648 0 48.6123V47.1094ZM0 44.1035C53.2717 47.252 100.94 71.2274 134.981 108H132.93C99.2284 72.1001 52.3426 48.7236 0 45.6064V44.1035ZM0 41.0986C55.12 44.3079 104.341 69.4845 139.043 108H137.019C102.644 70.3557 54.1973 45.7808 0 42.6016V41.0986ZM0 38.0928C56.9573 41.3603 107.719 67.7431 143.057 108H141.059C106.036 68.6127 56.0407 42.8344 0 39.5957V38.0928ZM0 35.0889C58.7847 38.4125 111.078 66.0032 147.027 108H145.052C109.405 66.8717 57.8732 39.8867 0 36.5908V35.0889ZM0 32.084C60.6038 35.4616 114.421 64.2637 150.961 108H149.001C112.754 65.1327 59.6958 36.9369 0 33.5859V32.084ZM0 29.0801C62.4133 32.5097 117.742 62.5272 154.852 108H152.91C116.083 63.3955 61.5094 33.9849 0 30.5811V29.0801ZM0 26.0752C64.2147 29.5549 121.046 60.7928 158.705 108H156.782C119.396 61.6599 63.3149 31.032 0 27.5771V26.0752ZM0 23.0703C66.0093 26.5984 124.336 59.0593 162.527 108H160.62C122.693 59.9259 65.1128 28.0764 0 24.5723V23.0703ZM0 20.0664C67.797 23.6412 127.611 57.3276 166.317 108H164.426C125.975 58.1934 66.9039 25.12 0 21.5684V20.0664ZM0 17.0615C69.5786 20.6814 130.875 55.5972 170.079 108H168.201C129.244 56.4624 68.6884 22.161 0 18.5635V17.0615ZM0 14.0576C71.3541 17.7211 134.124 53.8688 173.812 108H171.949C132.502 54.7327 70.4672 19.2015 0 15.5596V14.0576ZM0 11.0527C73.1246 14.7585 137.364 52.1414 177.52 108H175.668C135.745 53.0051 72.2398 16.2405 0 12.5557V11.0527ZM0 8.0498C74.8898 11.7965 140.593 50.4157 181.202 108H179.363C138.979 51.2785 74.0077 13.2781 0 9.55176V8.0498ZM0 5.0459C76.6504 8.83221 143.812 48.6912 184.862 108H183.035C142.204 49.5532 75.7707 10.3145 0 6.54785V5.0459ZM0 2.04297C78.4065 5.86774 147.021 46.9682 188.5 108H186.685C145.418 47.8293 77.5292 7.35062 0 3.54492V2.04297ZM12.9062 0C87.6501 7.53854 152.487 48.6383 192.117 108H190.312C148.623 46.1071 79.2831 4.38457 0 0.541016V0H12.9062ZM33.9736 0C101.492 12.6427 159.379 52.6169 195.715 108H193.918C156.202 51.0091 95.4614 10.5888 24.9551 0H33.9736ZM48.1641 0C111.288 15.5123 165.033 54.881 199.294 108H197.508C162.292 53.8615 106.661 14.2231 41.5293 0H48.1641ZM59.6953 0C119.518 17.5494 170.19 56.5006 202.856 108H201.078C167.658 55.7477 115.545 16.6041 54.1689 0H59.6953ZM69.7119 0C126.853 19.1272 175.052 57.7634 206.401 108H204.631C172.651 57.1666 123.273 18.3829 64.8525 0H69.7119ZM78.7217 0C133.59 20.4088 179.712 58.7951 209.93 108H208.167C177.404 58.3035 130.284 19.7986 74.3232 0H78.7217ZM86.998 0C139.892 21.4818 184.221 59.6625 213.443 108H211.688C181.983 59.2461 136.788 20.9674 82.9385 0H86.998ZM94.7178 0C145.861 22.4001 188.61 60.4084 216.942 108H215.194C186.429 60.0489 142.913 21.9578 90.9199 0H94.7178ZM101.99 0C151.562 23.1985 192.901 61.0591 220.427 108H218.688C190.768 60.7436 148.741 22.8126 98.4023 0H101.99ZM108.9 0C156.51 23.6358 196.218 60.7966 223 106.456V108H222.165C195.016 61.3547 154.328 23.5608 105.485 0H108.9ZM115.503 0C159.805 23.1977 197.008 58.1065 223 100.616V103.512C196.603 59.4514 158.165 23.4325 112.235 0H115.503ZM121.85 0C163.036 22.6414 197.869 55.4077 223 94.9463V97.7598C197.43 56.7571 161.427 22.9329 118.706 0H121.85ZM127.972 0C166.212 21.9839 198.794 52.6988 223 89.4238V92.167C198.324 54.0536 164.629 22.3243 124.936 0H127.972ZM133.899 0C169.344 21.2398 199.776 49.9845 223 84.0371V86.7148C199.278 51.342 167.781 21.6221 130.956 0H133.899ZM139.653 0C172.438 20.4199 200.807 47.2637 223 78.7705V81.3877C200.285 48.6229 170.893 20.8385 136.794 0H139.653ZM145.253 0C175.5 19.5338 201.882 44.5382 223 73.6143V76.1787C201.339 45.9012 173.973 19.9845 142.472 0H145.253ZM150.719 0C178.537 18.5885 202.998 41.8076 223 68.5557V71.0723C202.436 43.1731 177.022 19.0679 148.003 0H150.719ZM156.059 0C181.551 17.5914 204.151 39.0743 223 63.5908V66.0615C203.57 40.4406 180.046 18.0961 153.402 0H156.059ZM161.288 0C184.546 16.5475 205.336 36.3376 223 58.71V61.1406C204.739 37.7068 183.051 17.075 158.688 0H161.288ZM166.411 0C187.521 15.4618 206.551 33.5962 223 53.9062V56.2988C205.94 34.9675 186.036 16.0096 163.862 0H166.411ZM171.443 0C190.484 14.338 207.793 30.8526 223 49.1748V51.5312C207.169 32.2243 189.004 14.9043 168.938 0H171.443ZM176.39 0C193.435 13.1796 209.061 28.1056 223 44.5098V46.835C208.424 29.48 191.961 13.763 173.927 0H176.39ZM181.255 0C196.373 11.9902 210.351 25.3554 223 39.9072V42.2012C209.703 26.7311 194.905 12.5887 178.832 0H181.255ZM186.048 0C199.303 10.7718 211.663 22.6015 223 35.3613V37.627C211.005 23.9786 197.839 11.3844 183.66 0H186.048ZM190.771 0C202.223 9.52777 212.994 19.8461 223 30.8721V33.1084C212.327 21.2229 200.764 10.1526 188.418 0H190.771ZM195.43 0C205.136 8.25943 214.344 17.087 223 26.4326V28.6465C213.667 18.4671 203.68 8.89658 193.107 0H195.43ZM200.03 0C208.043 6.96879 215.71 14.3252 223 22.041V24.2314C215.025 15.7068 206.59 7.61683 197.737 0H200.03ZM204.576 0C210.945 5.65749 217.092 11.5605 223 17.6943V19.8613C216.399 12.9424 209.494 6.31553 202.31 0H204.576ZM209.066 0C213.841 4.32809 218.487 8.79445 223 13.3926V15.5391C217.788 10.1787 212.395 4.99499 206.829 0H209.066ZM213.509 0C216.732 2.98034 219.897 6.02245 223 9.12695V11.2549C219.191 7.40885 215.287 3.65628 211.294 0H213.509ZM217.906 0C219.621 1.61663 221.319 3.25122 223 4.90332V7.01172C220.606 4.63814 218.177 2.30068 215.713 0H217.906ZM222.257 0C222.505 0.237923 222.753 0.475198 223 0.713867V2.80371C222.035 1.86328 221.064 0.928892 220.088 0H222.257Z" fill="url(#paint0_radial_4937_195406)"/>
<defs>
<radialGradient id="paint0_radial_4937_195406" cx="0" cy="0" r="1" gradientUnits="userSpaceOnUse" gradientTransform="translate(39 -69) rotate(44.7655) scale(259.157 259.157)">
<stop offset="0.264967" stop-color="white"/>
<stop offset="1"/>
</radialGradient>
</defs>
</svg>
